<svg width="21" height="18" viewBox="0 0 21 18" fill="none" xmlns="http://www.w3.org/2000/svg">
<path d="M0.362419 8.74058L5.49794 11.2474C5.69657 11.3434 5.93108 11.3365 6.12096 11.2277L10.6921 8.62488L7.92526 11.0263C7.78438 11.1488 7.70388 11.3237 7.70388 11.5079V17.3571C7.70388 17.9742 8.50803 18.2339 8.88516 17.7436L11.1051 14.8529L16.595 17.915C16.98 18.1319 17.4735 17.9142 17.5628 17.4831L20.9868 0.771091C21.0891 0.268874 20.579 -0.140784 20.1047 0.0460472L0.416671 7.56645C-0.111844 7.76871 -0.14597 8.4929 0.362419 8.74058ZM19.4642 1.67097L16.455 16.3578L11.253 13.4559C10.9695 13.2974 10.6046 13.3677 10.4033 13.6282L9.01642 15.434V11.7967L16.4988 5.3039C17.0911 4.79054 16.4104 3.87781 15.734 4.2669L5.76745 9.94213L2.27435 8.2375L19.4642 1.67097Z" fill="#B0B0B0"/>
</svg>
