<svg width="21" height="25" viewBox="0 0 21 25" fill="none" xmlns="http://www.w3.org/2000/svg">
<path d="M18.1883 3.79435H14.1609V3.0621C14.1609 1.85083 13.1755 0.865356 11.9642 0.865356H9.0352C7.82393 0.865356 6.83846 1.85083 6.83846 3.0621V3.79435H2.81109C1.80169 3.79435 0.980469 4.61557 0.980469 5.62497V8.18784C0.980469 8.59223 1.30833 8.92009 1.71272 8.92009H2.11289L2.74551 22.205C2.80139 23.3783 3.76521 24.2973 4.93974 24.2973H16.0597C17.2342 24.2973 18.1981 23.3783 18.2539 22.205L18.8865 8.92009H19.2867C19.6911 8.92009 20.0189 8.59223 20.0189 8.18784V5.62497C20.0189 4.61557 19.1977 3.79435 18.1883 3.79435ZM8.30295 3.0621C8.30295 2.65836 8.63146 2.32985 9.0352 2.32985H11.9642C12.3679 2.32985 12.6964 2.65836 12.6964 3.0621V3.79435H8.30295V3.0621ZM2.44497 5.62497C2.44497 5.4231 2.60922 5.25885 2.81109 5.25885H18.1883C18.3902 5.25885 18.5544 5.4231 18.5544 5.62497V7.45559C18.3288 7.45559 3.38009 7.45559 2.44497 7.45559V5.62497ZM16.791 22.1354C16.7724 22.5265 16.4511 22.8328 16.0597 22.8328H4.93974C4.54821 22.8328 4.22694 22.5265 4.20836 22.1354L3.57904 8.92009H17.4204L16.791 22.1354Z" fill="#EB5C27"/>
<path d="M10.4998 21.3684C10.9042 21.3684 11.2321 21.0405 11.2321 20.6361V11.1169C11.2321 10.7125 10.9042 10.3846 10.4998 10.3846C10.0954 10.3846 9.76758 10.7125 9.76758 11.1169V20.6361C9.76758 21.0405 10.0954 21.3684 10.4998 21.3684Z" fill="#EB5C27"/>
<path d="M14.1619 21.3684C14.5663 21.3684 14.8942 21.0405 14.8942 20.6361V11.1169C14.8942 10.7125 14.5663 10.3846 14.1619 10.3846C13.7576 10.3846 13.4297 10.7125 13.4297 11.1169V20.6361C13.4297 21.0405 13.7575 21.3684 14.1619 21.3684Z" fill="#EB5C27"/>
<path d="M6.83772 21.3684C7.2421 21.3684 7.56997 21.0405 7.56997 20.6361V11.1169C7.56997 10.7125 7.2421 10.3846 6.83772 10.3846C6.43333 10.3846 6.10547 10.7125 6.10547 11.1169V20.6361C6.10547 21.0405 6.43329 21.3684 6.83772 21.3684Z" fill="#EB5C27"/>
</svg>
