<svg width="15" height="15" viewBox="0 0 15 15" fill="none" xmlns="http://www.w3.org/2000/svg">
<path fill-rule="evenodd" clip-rule="evenodd" d="M15 7.5C15 11.6423 11.6419 15 7.5002 15C3.35806 15 0 11.6423 0 7.5C0 3.35774 3.35806 0 7.5002 0C11.6419 0 15 3.35774 15 7.5Z" fill="#E4E3E6"/>
<path fill-rule="evenodd" clip-rule="evenodd" d="M8.18993 7.50007L10.2918 5.39848C10.4825 5.20786 10.4825 4.89878 10.2918 4.70815C10.1012 4.51753 9.79214 4.51753 9.60192 4.70815L7.50001 6.81013L5.39811 4.70815C5.20749 4.51753 4.89881 4.51753 4.7082 4.70815C4.51758 4.89878 4.51758 5.20786 4.7082 5.39848L6.8101 7.50007L4.7082 9.60204C4.51758 9.79267 4.51758 10.1014 4.7082 10.292C4.8035 10.3873 4.92862 10.4348 5.05335 10.4348C5.17807 10.4348 5.3028 10.3873 5.39811 10.292L7.50001 8.19L9.60192 10.292C9.69723 10.3873 9.82195 10.4348 9.94668 10.4348C10.0714 10.4348 10.1965 10.3873 10.2918 10.292C10.4825 10.1014 10.4825 9.79267 10.2918 9.60204L8.18993 7.50007Z" fill="#343435"/>
</svg>
