<svg width="30" height="14" viewBox="0 0 30 14" fill="none" xmlns="http://www.w3.org/2000/svg">
<path d="M28.4695 3.33907C28.4173 3.29853 25.1007 0.713051 25.1007 0.713051C24.513 0.254657 23.7723 0 23.0271 0H13.5598C12.7006 0 11.9716 0.344719 11.3015 0.852743L7.83004 3.48439C7.55604 3.69211 7.23342 3.83427 6.89708 3.89544C6.88571 3.89749 6.87434 3.89995 6.86303 3.90271L2.84718 4.8826C1.9032 5.05962 1.08685 5.71835 0.71371 6.60543L0.196603 7.83383C-0.13288 8.61479 -0.0444008 9.51084 0.433212 10.2306C0.911353 10.9512 1.70292 11.3814 2.55068 11.3814H3.81541C4.01452 12.8436 5.27058 13.9744 6.78651 13.9744C8.30243 13.9744 9.55849 12.8436 9.7576 11.3814H12.9977C13.3213 11.3814 13.5837 11.1191 13.5837 10.7955C13.5837 10.4719 13.3213 10.2095 12.9977 10.2095H9.68652C9.34333 8.91369 8.12723 7.97557 6.78633 7.97557C5.44631 7.97557 4.22927 8.91498 3.88614 10.2095H2.55068C2.09663 10.2095 1.67017 9.97521 1.40971 9.58274C1.14597 9.18516 1.09734 8.71376 1.27658 8.28894L1.39688 8.00317H2.31665C2.64028 8.00317 2.90261 7.74084 2.90261 7.41721C2.90261 7.09359 2.64028 6.83126 2.31665 6.83126H1.9124C2.16682 6.4174 2.59276 6.11932 3.07394 6.03248C3.0856 6.03037 3.09721 6.02791 3.10875 6.0251L7.12478 5.0452C7.62864 4.95063 8.11106 4.73769 8.52275 4.42925C8.90849 4.96206 9.53623 5.30285 10.2232 5.30285H17.2346C17.9933 5.30285 18.6106 4.6856 18.6106 3.92685V1.17203H20.3915V3.77174C20.3915 4.53044 21.0088 5.14769 21.7675 5.14769H26.0587C26.7726 5.14769 27.4523 4.89924 27.9926 4.45415C28.5691 4.91108 28.828 5.17634 28.828 5.59665V9.5133C28.828 9.89722 28.5151 10.2095 28.1304 10.2095H27.3631C27.0201 8.91111 25.8064 7.97557 24.4634 7.97557C23.12 7.97557 21.9062 8.91076 21.5631 10.2095H18.1527C17.829 10.2095 17.5667 10.4719 17.5667 10.7955C17.5667 11.1191 17.829 11.3814 18.1527 11.3814H21.4921C21.6912 12.8436 22.9473 13.9744 24.4632 13.9744C25.9791 13.9744 27.2352 12.8436 27.4343 11.3814H28.1305C29.1613 11.3814 30 10.5434 30 9.5133V5.59665C29.9999 4.52763 29.2908 3.97689 28.4695 3.33907ZM6.78651 12.8025C5.77884 12.8025 4.95902 11.9826 4.95902 10.975C4.95902 10.0169 5.73788 9.19776 6.69498 9.14983C7.72152 9.09885 8.61399 9.94708 8.61399 10.975C8.61399 11.9826 7.79418 12.8025 6.78651 12.8025ZM17.4387 3.92679C17.4387 4.03929 17.3471 4.13088 17.2346 4.13088H10.2231C9.90989 4.13088 9.62447 3.97062 9.4563 3.72217L12.23 1.61947C12.609 1.33176 13.0837 1.17227 13.5594 1.17227H17.4386V3.92679H17.4387ZM21.7675 3.97572C21.655 3.97572 21.5635 3.88419 21.5635 3.77169V1.17227H23.0269C23.5127 1.17227 23.9973 1.33809 24.3802 1.63751L27.0314 3.70418C26.7419 3.88015 26.4068 3.97578 26.0588 3.97578H21.7675V3.97572ZM24.4631 12.8025C23.4555 12.8025 22.6356 11.9826 22.6356 10.975C22.6356 9.98382 23.4706 9.14749 24.4631 9.14749C25.4556 9.14749 26.2906 9.98441 26.2906 10.975C26.2906 11.9826 25.4708 12.8025 24.4631 12.8025Z" fill="#343435"/>
<path d="M18.4051 7.41726C18.4051 7.09363 18.1428 6.8313 17.8191 6.8313H16.6337C16.3101 6.8313 16.0477 7.09363 16.0477 7.41726C16.0477 7.74088 16.3101 8.00321 16.6337 8.00321H17.8191C18.1428 8.00321 18.4051 7.74088 18.4051 7.41726Z" fill="#343435"/>
<path d="M16.1731 10.5714C16.052 10.276 15.7022 10.1325 15.4079 10.2544C15.113 10.3765 14.9688 10.7248 15.0909 11.0197C15.213 11.3146 15.5614 11.4584 15.8561 11.3367C16.1506 11.215 16.2957 10.8658 16.1731 10.5714Z" fill="#343435"/>
</svg>
