<svg width="13" height="22" viewBox="0 0 13 22" fill="none" xmlns="http://www.w3.org/2000/svg">
<path d="M10.0156 20.9844C10.2734 21.2422 10.6016 21.3828 10.9883 21.3828C11.7617 21.3828 12.3828 20.7734 12.3828 20C12.3828 19.6133 12.2187 19.2617 11.9492 18.9922L3.74609 10.9766L11.9492 2.98438C12.2188 2.71484 12.3828 2.35156 12.3828 1.97656C12.3828 1.20313 11.7617 0.59375 10.9883 0.59375C10.6016 0.59375 10.2734 0.734375 10.0156 0.992188L0.898437 9.89844C0.570312 10.2031 0.417969 10.5781 0.40625 10.9883C0.40625 11.3984 0.570312 11.75 0.898437 12.0664L10.0156 20.9844Z" fill="#EB5C27"/>
</svg>
