<svg width="15" height="15" viewBox="0 0 15 15" fill="none" xmlns="http://www.w3.org/2000/svg">
<path fill-rule="evenodd" clip-rule="evenodd" d="M15 7.5C15 11.6423 11.6419 15 7.5002 15C3.35806 15 0 11.6423 0 7.5C0 3.35774 3.35806 0 7.5002 0C11.6419 0 15 3.35774 15 7.5Z" fill="#E4E3E6"/>
<path fill-rule="evenodd" clip-rule="evenodd" d="M8.13996 6.38843H6.013L6.92455 5.50357C7.04329 5.38832 7.04329 5.20136 6.92455 5.0861C6.80582 4.9713 6.61369 4.9713 6.49495 5.0861L5.08929 6.45105C5.03226 6.50641 5 6.58128 5 6.65978C5 6.73783 5.03226 6.81271 5.08929 6.86807L6.54357 8.27975C6.60294 8.33738 6.68053 8.36642 6.7586 8.36642C6.8362 8.36642 6.9138 8.33738 6.97317 8.27975C7.0919 8.16495 7.0919 7.97799 6.97317 7.86273L6.06208 6.97833H8.13996C8.83087 6.97833 9.39276 7.52377 9.39276 8.19399C9.39276 8.86512 8.83087 9.41055 8.13996 9.41055H7.42006C7.25224 9.41055 7.11621 9.5426 7.11621 9.70505C7.11621 9.86795 7.25224 10 7.42006 10H8.13996C9.16558 10 10 9.19002 10 8.19399C10 7.19841 9.16558 6.38843 8.13996 6.38843Z" fill="#343435"/>
</svg>
